<svg width="15" height="16" viewBox="0 0 15 16" fill="none" xmlns="http://www.w3.org/2000/svg">
<path d="M6.89333 12.9649L10.0833 6.73156H7.88333V2.69823L4.58333 8.93156H6.89333V12.9649ZM7.33333 15.1649C6.31889 15.1649 5.36556 14.9724 4.47333 14.5874C3.58111 14.2024 2.805 13.6799 2.145 13.0199C1.485 12.3599 0.9625 11.5838 0.5775 10.6916C0.1925 9.79934 0 8.84601 0 7.83156C0 6.81712 0.1925 5.86379 0.5775 4.97156C0.9625 4.07934 1.485 3.30323 2.145 2.64323C2.805 1.98323 3.58111 1.46073 4.47333 1.07573C5.36556 0.69073 6.31889 0.49823 7.33333 0.49823C8.34778 0.49823 9.30111 0.69073 10.1933 1.07573C11.0856 1.46073 11.8617 1.98323 12.5217 2.64323C13.1817 3.30323 13.7042 4.07934 14.0892 4.97156C14.4742 5.86379 14.6667 6.81712 14.6667 7.83156C14.6667 8.84601 14.4742 9.79934 14.0892 10.6916C13.7042 11.5838 13.1817 12.3599 12.5217 13.0199C11.8617 13.6799 11.0856 14.2024 10.1933 14.5874C9.30111 14.9724 8.34778 15.1649 7.33333 15.1649Z" fill="#894189"/>
</svg>
