<svg width="14" height="14" viewBox="0 0 14 14" fill="none" xmlns="http://www.w3.org/2000/svg">
<path d="M6.26667 11.4982L9.16667 5.83152H7.16667V2.16486L4.16667 7.83152H6.26667V11.4982ZM6.66667 13.4982C5.74444 13.4982 4.87778 13.3232 4.06667 12.9732C3.25556 12.6232 2.55 12.1482 1.95 11.5482C1.35 10.9482 0.875 10.2426 0.525 9.43152C0.175 8.62041 0 7.75374 0 6.83152C0 5.9093 0.175 5.04263 0.525 4.23152C0.875 3.42041 1.35 2.71486 1.95 2.11486C2.55 1.51486 3.25556 1.03986 4.06667 0.689856C4.87778 0.339856 5.74444 0.164856 6.66667 0.164856C7.58889 0.164856 8.45555 0.339856 9.26667 0.689856C10.0778 1.03986 10.7833 1.51486 11.3833 2.11486C11.9833 2.71486 12.4583 3.42041 12.8083 4.23152C13.1583 5.04263 13.3333 5.9093 13.3333 6.83152C13.3333 7.75374 13.1583 8.62041 12.8083 9.43152C12.4583 10.2426 11.9833 10.9482 11.3833 11.5482C10.7833 12.1482 10.0778 12.6232 9.26667 12.9732C8.45555 13.3232 7.58889 13.4982 6.66667 13.4982Z" fill="white"/>
</svg>
